<?xml version="1.0" encoding="iso-8859-1"?>
<!-- Generator: Adobe Illustrator 19.0.0, SVG Export Plug-In . SVG Version: 6.00 Build 0)  -->
<svg version="1.1" id="Capa_1" xmlns="http://www.w3.org/2000/svg" xmlns:xlink="http://www.w3.org/1999/xlink" x="0px" y="0px"
	 viewBox="0 0 512 512" style="enable-background:new 0 0 512 512;" xml:space="preserve">
<g>
	<g>
		<path d="M45.833,270.143c-7.797-7.798-7.797-20.487,0.018-28.302L221.145,66.114c7.8-7.82,7.785-20.484-0.035-28.285
			c-7.821-7.8-20.485-7.785-28.286,0.035L17.549,213.572c-23.395,23.395-23.395,61.462-0.018,84.839l175.293,175.725
			c3.908,3.917,9.033,5.875,14.161,5.875c5.11,0,10.222-1.947,14.125-5.841c7.82-7.801,7.836-20.465,0.035-28.285L45.833,270.143z"
			/>
	</g>
</g>
<g>
	<g>
		<path d="M491.999,235.999H128.98c-11.047,0-20.001,8.954-20.001,20.001s8.954,20.001,20.001,20.001h363.018
			c11.047,0,20.001-8.954,20.001-20.001S503.045,235.999,491.999,235.999z"/>
	</g>
</g>
<g>
</g>
<g>
</g>
<g>
</g>
<g>
</g>
<g>
</g>
<g>
</g>
<g>
</g>
<g>
</g>
<g>
</g>
<g>
</g>
<g>
</g>
<g>
</g>
<g>
</g>
<g>
</g>
<g>
</g>
</svg>
