<?xml version="1.0" encoding="iso-8859-1"?>
<!-- Generator: Adobe Illustrator 19.0.0, SVG Export Plug-In . SVG Version: 6.00 Build 0)  -->
<svg version="1.1" id="Capa_1" xmlns="http://www.w3.org/2000/svg" xmlns:xlink="http://www.w3.org/1999/xlink" x="0px" y="0px" fill="#fff" viewBox="0 0 512 512" style="enable-background:new 0 0 512 512;" xml:space="preserve">
<g>
	<g>
		<path d="M196.5,406.122c-11.046,0-20,8.954-20,20V492c0,11.046,8.954,20,20,20s20-8.954,20-20v-65.878
			C216.5,415.076,207.546,406.122,196.5,406.122z"/>
	</g>
</g>
<g>
	<g>
		<path d="M236.5,326h-20V20c0-11.046-8.954-20-20-20s-20,8.954-20,20v306h-20c-11.046,0-20,8.954-20,20c0,11.046,8.954,20,20,20h80
			c11.046,0,20-8.954,20-20C256.5,334.954,247.546,326,236.5,326z"/>
	</g>
</g>
<g>
	<g>
		<path d="M60.5,144.122c-11.046,0-20,8.954-20,20V492c0,11.046,8.954,20,20,20s20-8.954,20-20V164.122
			C80.5,153.076,71.546,144.122,60.5,144.122z"/>
	</g>
</g>
<g>
	<g>
		<path d="M100.5,64.244h-20V20c0-11.046-8.954-20-20-20s-20,8.954-20,20v44.244h-20c-11.046,0-20,8.954-20,20
			c0,11.046,8.954,20,20,20h80c11.046,0,20-8.954,20-20C120.5,73.198,111.546,64.244,100.5,64.244z"/>
	</g>
</g>
<g>
	<g>
		<path d="M451.5,171.168c-11.046,0-20,8.954-20,20V492c0,11.046,8.954,20,20,20c11.046,0,20-8.954,20-20V191.168
			C471.5,180.122,462.546,171.168,451.5,171.168z"/>
	</g>
</g>
<g>
	<g>
		<path d="M491.5,91.122h-20V20c0-11.046-8.954-20-20-20c-11.046,0-20,8.954-20,20v71.122h-20c-11.046,0-20,8.954-20,20
			c0,11.046,8.954,20,20,20h80c11.046,0,20-8.954,20-20S502.546,91.122,491.5,91.122z"/>
	</g>
</g>
<g>
	<g>
		<path d="M321.5,318.122c-11.046,0-20,8.954-20,20V492c0,11.046,8.954,20,20,20c11.046,0,20-8.954,20-20V338.122
			C341.5,327.076,332.546,318.122,321.5,318.122z"/>
	</g>
</g>
<g>
	<g>
		<path d="M361.5,238.244h-20V20c0-11.046-8.954-20-20-20c-11.046,0-20,8.954-20,20v218.244h-20c-11.046,0-20,8.954-20,20
			s8.954,20,20,20h80c11.046,0,20-8.954,20-20C381.5,247.198,372.546,238.244,361.5,238.244z"/>
	</g>
</g>
<g>
</g>
<g>
</g>
<g>
</g>
<g>
</g>
<g>
</g>
<g>
</g>
<g>
</g>
<g>
</g>
<g>
</g>
<g>
</g>
<g>
</g>
<g>
</g>
<g>
</g>
<g>
</g>
<g>
</g>
</svg>
