<?xml version='1.0' encoding='iso-8859-1'?>
<svg version="1.1" xmlns="http://www.w3.org/2000/svg" viewBox="0 0 24 24" xmlns:xlink="http://www.w3.org/1999/xlink" enable-background="new 0 0 24 24">
  <path fill="rgba(0, 0,0, 0.6)" d="m24,13v-2c0-0.6-0.4-1-1-1h-1.8c-0.2,0-0.4-0.2-0.5-0.4-0.2-0.7-0.5-1.4-0.9-2.1-0.1-0.2-0.1-0.4 0.1-0.6l1.3-1.3c0.4-0.4 0.4-1 0-1.4l-1.4-1.4c-0.4-0.4-1-0.4-1.4,0l-1.3,1.3c-0.2,0.2-0.4,0.2-0.6,0.1-0.6-0.4-1.3-0.7-2.1-0.9-0.2-0.1-0.4-0.2-0.4-0.5v-1.8c0-0.6-0.4-1-1-1h-2c-0.6,0-1,0.4-1,1v1.8c0,0.2-0.2,0.4-0.4,0.5-0.7,0.2-1.4,0.5-2.1,0.9-0.2,0.1-0.4,0.1-0.6-0.1l-1.3-1.3c-0.4-0.4-1-0.4-1.4,0l-1.4,1.4c-0.4,0.4-0.4,1 0,1.4l1.3,1.3c0.2,0.2 0.2,0.4 0.1,0.6-0.4,0.6-0.7,1.3-0.9,2.1-0.1,0.2-0.2,0.4-0.5,0.4h-1.8c-0.6,0-1,0.4-1,1v2c0,0.6 0.4,1 1,1h1.8c0.2,0 0.4,0.2 0.5,0.4 0.2,0.7 0.5,1.4 0.9,2.1 0.1,0.2 0.1,0.4-0.1,0.6l-1.3,1.3c-0.4,0.4-0.4,1 0,1.4l1.4,1.4c0.4,0.4 1,0.4 1.4,0l1.3-1.3c0.2-0.2 0.4-0.2 0.6-0.1 0.6,0.4 1.3,0.7 2.1,0.9 0.2,0.1 0.4,0.2 0.4,0.5v1.8c0,0.6 0.4,1 1,1h2c0.6,0 1-0.4 1-1v-1.8c0-0.2 0.2-0.4 0.4-0.5 0.7-0.2 1.4-0.5 2.1-0.9 0.2-0.1 0.4-0.1 0.6,0.1l1.3,1.3c0.4,0.4 1,0.4 1.4,0l1.4-1.4c0.4-0.4 0.4-1 0-1.4l-1.3-1.3c-0.2-0.2-0.2-0.4-0.1-0.6 0.4-0.6 0.7-1.3 0.9-2.1 0.1-0.2 0.2-0.4 0.5-0.4h1.8c0.6-3.55271e-15 1-0.4 1-1zm-12,4c-2.8,0-5-2.2-5-5s2.2-5 5-5 5,2.2 5,5-2.2,5-5,5z"/>
</svg>
