<?xml version='1.0' encoding='iso-8859-1'?>
<svg version="1.1" xmlns="http://www.w3.org/2000/svg" viewBox="0 0 26 26" xmlns:xlink="http://www.w3.org/1999/xlink" enable-background="new 0 0 26 26">
  <g fill="rgba(0, 0, 0, 0.6)">
    <path d="m13,6c-3.9,0-7,3.1-7,7s3.1,7 7,7 7-3.1 7-7-3.1-7-7-7zm0,10c-1.7,0-3-1.3-3-3s1.3-3 3-3 3,1.3 3,3-1.3,3-3,3z"/>
    <path d="m12,4h2c0.6,0 1-0.4 1-1v-2c0-0.6-0.4-1-1-1h-2c-0.6,0-1,0.4-1,1v2c0,0.6 0.4,1 1,1z"/>
    <path d="m14,22h-2c-0.6,0-1,0.4-1,1v2c0,0.6 0.4,1 1,1h2c0.6,0 1-0.4 1-1v-2c0-0.6-0.4-1-1-1z"/>
    <path d="m25,11h-2c-0.6,0-1,0.4-1,1v2c0,0.6 0.4,1 1,1h2c0.6,0 1-0.4 1-1v-2c0-0.6-0.4-1-1-1z"/>
    <path d="m4,14v-2c0-0.6-0.4-1-1-1h-2c-0.6,0-1,0.4-1,1v2c0,0.6 0.4,1 1,1h2c0.6,0 1-0.4 1-1z"/>
    <path d="m20.1,7.3c0.4,0.4 1,0.4 1.4,0l1.4-1.4c0.4-0.4 0.4-1 0-1.4l-1.4-1.4c-0.4-0.4-1-0.4-1.4,0l-1.4,1.4c-0.4,0.4-0.4,1 0,1.4l1.4,1.4z"/>
    <path d="m5.9,18.7c-0.4-0.4-1-0.4-1.4,0l-1.4,1.4c-0.4,0.4-0.4,1 0,1.4l1.4,1.4c0.4,0.4 1,0.4 1.4,0l1.4-1.4c0.4-0.4 0.4-1 0-1.4l-1.4-1.4z"/>
    <path d="m21.5,18.7c-0.4-0.4-1-0.4-1.4,0l-1.4,1.4c-0.4,0.4-0.4,1 0,1.4l1.4,1.4c0.4,0.4 1,0.4 1.4,0l1.4-1.4c0.4-0.4 0.4-1 0-1.4l-1.4-1.4z"/>
    <path d="m4.5,7.3c0.4,0.4 1,0.4 1.4,0l1.4-1.4c0.4-0.4 0.4-1 0-1.4l-1.4-1.4c-0.4-0.4-1-0.4-1.4,0l-1.4,1.4c-0.4,0.4-0.4,1 0,1.4l1.4,1.4z"/>
  </g>
</svg>
