<?xml version="1.0" encoding="UTF-8"?>
<svg width="33px" height="32px" viewBox="0 0 33 32" version="1.1" xmlns="http://www.w3.org/2000/svg" xmlns:xlink="http://www.w3.org/1999/xlink">
    <!-- Generator: Sketch 52.1 (67048) - http://www.bohemiancoding.com/sketch -->
    <title>Octicons-mark-github</title>
    <desc>Created with Sketch.</desc>
    <g id="Page-1" stroke="none" stroke-width="1" fill="none" fill-rule="evenodd">
        <g id="Home" transform="translate(-224.000000, -871.000000)" fill="#6c63ff">
            <g id="Octicons-mark-github" transform="translate(224.000000, 871.000000)">
                <path d="M16.5,0 C7.38375,0 0,7.33917918 0,16.4004004 C0,23.6575776 4.723125,29.7872272 11.281875,31.9602803 C12.106875,32.1037838 12.41625,31.6117718 12.41625,31.1812613 C12.41625,30.7917518 12.395625,29.5002202 12.395625,28.1266867 C8.25,28.8852052 7.1775,27.1221622 6.8475,26.1996396 C6.661875,25.7281281 5.8575,24.2725926 5.15625,23.8830831 C4.57875,23.5755756 3.75375,22.8170571 5.135625,22.7965566 C6.435,22.7760561 7.363125,23.9855856 7.6725,24.4775976 C9.1575,26.9581582 11.529375,26.2611411 12.478125,25.8306306 C12.6225,24.7646046 13.055625,24.0470871 13.53,23.6370771 C9.85875,23.2270671 6.0225,21.8125325 6.0225,15.5393794 C6.0225,13.7558358 6.661875,12.2797998 7.71375,11.1317718 C7.54875,10.7217618 6.97125,9.04072072 7.87875,6.78566567 C7.87875,6.78566567 9.260625,6.35515516 12.41625,8.46670671 C13.73625,8.0976977 15.13875,7.91319319 16.54125,7.91319319 C17.94375,7.91319319 19.34625,8.0976977 20.66625,8.46670671 C23.821875,6.33465465 25.20375,6.78566567 25.20375,6.78566567 C26.11125,9.04072072 25.53375,10.7217618 25.36875,11.1317718 C26.420625,12.2797998 27.06,13.7353353 27.06,15.5393794 C27.06,21.833033 23.203125,23.2270671 19.531875,23.6370771 C20.13,24.1495896 20.645625,25.1336136 20.645625,26.6711512 C20.645625,28.8647047 20.625,30.6277477 20.625,31.1812613 C20.625,31.6117718 20.934375,32.1242843 21.759375,31.9602803 C28.276875,29.7872272 33,23.6370771 33,16.4004004 C33,7.33917918 25.61625,0 16.5,0 Z" id="Path"></path>
            </g>
        </g>
    </g>
</svg>