<?xml version="1.0" encoding="UTF-8"?>
<svg width="167px" height="178px" viewBox="0 0 167 178" version="1.1" xmlns="http://www.w3.org/2000/svg" xmlns:xlink="http://www.w3.org/1999/xlink">
    <!-- Generator: Sketch 52.1 (67048) - http://www.bohemiancoding.com/sketch -->
    <title>Group 6</title>
    <desc>Created with Sketch.</desc>
    <g id="Page-1" stroke="none" stroke-width="1" fill="none" fill-rule="evenodd">
        <g id="Read" transform="translate(-96.000000, -237.000000)">
            <g id="Group-6" transform="translate(85.000000, 205.000000)">
                <path d="M85.2264595,155.096804 C83.2843349,155.096804 81.3481315,155.135613 79.408445,155.236039 C77.9299086,155.312976 75.6704821,155.007952 74.4193861,155.925066 C73.119528,156.877583 73.2090413,158.827556 73.4121006,160.204588 C74.4855632,167.486686 77.1054809,173.943926 82.5863404,179.103114 C91.0253174,187.047345 100.699717,191.083801 112.147664,192.881262 C120.18923,194.14391 127.61291,192.390705 133.532629,186.699768 C137.857826,194.688595 141.139167,203.529173 142.785584,212.451794 C143.597821,216.854551 143.845812,221.204201 143.703008,225.687299 C143.611057,228.55881 143.451883,231.423513 143.142592,234.281407 C143.008497,235.523289 142.372151,237.403133 142.860817,238.576589 C143.43412,239.954642 145.367537,240.088089 146.235502,238.912932 C146.957878,237.934882 146.825175,236.014186 146.973552,234.85673 C147.219452,232.933992 147.44724,231.009893 147.610245,229.078303 C147.874954,225.951812 148.070699,222.816469 148.056418,219.678062 C148.02333,212.626774 146.447966,205.547912 144.29303,198.854414 C140.159049,186.013124 133.451474,174.600612 123.019521,165.646331 C116.605216,160.140247 109.264082,157.910442 100.935168,156.713497 C95.7496678,155.9683 90.4795303,155.096804 85.2264595,155.096804" id="Fill-16" fill="#DDE3E9" transform="translate(110.675502, 197.403558) rotate(-39.000000) translate(-110.675502, -197.403558) "></path>
                <path d="M129.485146,186.720509 C127.91013,174.178797 126.242815,161.708914 123.191353,149.410948 C121.392728,142.163915 119.087674,135.069392 116.993342,127.904742 C117.181076,128.803472 117.347216,129.70799 117.491412,130.61489 C116.762767,128.478023 115.241041,126.434093 114.365762,124.304715 C113.389475,121.929888 112.604405,119.463146 111.858693,117.011042 C110.402797,112.225304 109.029099,107.431395 107.390692,102.700465 C105.5649,97.4296165 103.462557,92.2462578 101.503366,87.0217074 C99.8405787,82.5876311 98.2833264,77.9322765 96.1186377,73.7007549 C94.9389433,71.3943544 93.8811541,68.9170589 92.7230544,66.5660623 C92.3353957,65.7793329 89.0091243,56.9905 89.0342019,56.9905 C89.5841687,56.9905 91.6468053,60.8972532 91.9884882,61.471215 C92.9870663,63.1474831 93.8355267,64.8918368 94.693043,66.6395948 C95.0632866,64.5643449 95.6494767,62.5326699 96.5728217,60.6249107 C96.8577317,60.03597 98.8576742,55.692788 99.5089964,55.692788 C99.8343093,55.692788 96.8281261,63.8943824 96.4481301,64.6143879 C96.1395357,65.1992434 95.5613566,65.9406958 95.3600388,66.5629984 C95.034726,67.5679423 95.2022586,67.3167063 95.4707984,68.2232664 C95.9629473,69.8848961 97.0520835,71.5121425 97.7375392,73.1077291 C98.1137039,73.9594803 99.0408803,76.911673 99.9429791,78.2338958 C102.265796,82.7741857 103.916393,88.3102279 105.684716,93.2062652 C106.06506,90.8008 106.722652,88.4814632 107.633458,86.2179566 C107.849404,85.6804206 109.56792,80.6928082 110.062855,80.6928082 C110.619788,80.6928082 108.487143,88.6809541 108.197357,89.3710019 C107.659232,90.6527138 106.81321,91.8932339 106.365644,93.1977544 C105.87454,94.6295951 106.73728,95.918456 107.286899,97.3829778 C109.308784,102.770934 111.081286,108.212677 112.700885,113.727613 C122.106744,109.608092 123.977119,97.4837445 124.590825,88.5427403 C125.032818,82.0987763 124.035285,75.5366838 122.471415,69.2857426 C120.384397,60.943211 116.873178,52.889022 113.147754,45.1347502 C108.806883,36.0994473 102.837358,28.0295987 95.6397242,20.9558427 C91.8752905,17.2560698 87.5880575,14.0495773 83.2336025,11.0449587 C81.1065302,9.57703262 78.9212918,8.35864036 76.4382563,7.54195329 C75.3188179,7.17429092 74.169774,6.90807612 73.0081912,6.70415968 C72.1255973,6.54926488 70.3248828,5.73087567 69.5931031,5.93955811 C63.6176567,7.59267708 59.1259712,10.342315 55.643661,15.4538433 C52.3469951,20.2923483 50.3007287,26.0769029 49.1631787,31.7514993 C47.8967574,38.0705262 47.5912977,44.4416385 48.6783441,50.8011763 C49.507648,55.6532984 50.9381189,60.4101005 52.3706796,65.1202641 C57.4656219,81.8730725 66.3960512,99.8337199 82.4203204,109.023577 C87.607214,111.998578 93.3625344,113.737485 99.2707588,114.659365 C100.662917,114.876558 102.053681,115.083198 103.462557,115.162517 C104.412373,115.216305 107.534889,114.585492 108.222086,114.995027 C109.164239,115.556393 109.705499,118.741098 110.116145,119.89583 C113.236223,128.672408 116.026459,137.54839 118.558257,146.503692 C121.251666,156.031595 123.391277,165.652093 125.173532,175.379827 C125.931434,179.51739 126.669831,183.648145 127.298514,187.808177 C127.445149,188.776014 127.293638,191.820122 128.238229,192.674937 C128.835565,193.215537 129.679846,192.993919 130.035113,192.332126 C130.652998,191.181479 129.646409,188.004604 129.485146,186.720509" id="Leaf" fill="#C1DEE2" transform="translate(89.123641, 99.442244) rotate(-37.000000) translate(-89.123641, -99.442244) "></path>
                <path d="M85.6033742,143.822266 C85.1883937,142.302929 84.9392181,140.73203 85.0544384,139.142495 C85.0837119,138.740709 85.4207078,135.822266 85.7469312,135.822266 C86.5066358,135.822266 85.4602855,143.354365 85.6033742,143.822266 M72.3819541,150.396168 C72.4279916,150.414626 73.2644552,152.022351 73.5388483,152.489154 C74.1217617,153.482145 74.7433833,154.45106 75.3819541,155.396168 C74.1838322,153.839001 73.1089353,152.336674 72.3819541,150.396168 M117.257187,102.56354 C117.968822,101.963269 117.579492,100.463631 116.73541,101.2916 C116.053949,101.96249 116.033655,101.896024 115.177022,101.853185 C114.481408,101.818394 113.741468,101.60238 113.042383,101.516441 C111.559565,101.334179 110.085024,101.257068 108.593127,101.361181 C105.395174,101.583946 102.283472,102.345708 99.3221079,103.530412 C94.1542738,105.598126 88.9375732,108.277535 84.8263774,112.008715 C78.2894798,117.941321 73.0399345,126.06211 69.942385,134.159532 C68.0237735,139.174337 66.990901,144.207575 68.7348747,149.423335 C69.6061941,152.030046 70.9854047,154.510576 72.9870625,156.468985 C73.5104416,156.980721 74.2001804,157.37718 74.6899137,157.91436 C75.4429386,158.740251 75.2704372,158.475686 74.7809709,159.654158 C74.2463766,160.940898 73.7165888,162.229195 73.1902725,163.519309 C71.812664,166.897389 70.456418,170.313635 69.4561231,173.818936 C69.1266079,174.972483 68.8731963,176.143686 68.6894796,177.327611 C68.5500899,178.222824 67.7409886,181.628685 68.4451471,182.54389 C69.6166082,184.067155 70.1156875,181.728124 70.1533388,180.927937 C70.1861835,180.226928 70.2473334,179.524363 70.3349193,178.827509 C70.5554862,177.072911 70.9544292,175.350508 71.4727347,173.658223 C72.0326968,171.829371 72.7189643,170.03479 73.4009592,168.246181 C74.037292,166.578301 74.7032652,164.921325 75.3823228,163.269802 C75.7593693,162.352261 76.1409554,161.436536 76.5225414,160.520812 C76.6528521,160.207955 76.7198767,159.554459 77.0648796,159.82266 C77.8189727,157.867367 79.0467772,156.010474 80.0646961,154.174871 C81.3117268,151.926712 82.5841254,149.683227 84.0172761,147.541258 C85.0509497,145.996444 86.1396315,144.484083 87.330853,143.048834 C88.0270005,142.210221 88.7712135,141.421976 89.5618897,140.666445 C89.9963477,140.251552 91.4797001,138.471771 92.0781146,138.471771 C91.8209646,138.471771 90.6577813,140.732132 90.4764679,140.999035 C89.7520151,142.067163 88.9656114,143.084664 88.1629188,144.098269 C86.6734248,145.979308 85.2912768,147.92863 84.0410418,149.967784 C84.4017995,150.1825 85.9019747,149.1933 86.3492502,149.00247 C87.3524824,148.574855 88.3837528,148.209292 89.440391,147.927331 C91.301591,147.430395 93.5764206,146.864395 95.413855,146.864395 C94.8723179,146.864395 93.615407,147.748185 93.0517064,147.988345 C92.1483435,148.372861 91.222016,148.723625 90.282871,149.01649 C89.4158242,149.286768 88.5330226,149.492916 87.6443463,149.682708 C86.755136,149.872239 85.1484157,149.879509 84.3393144,150.353079 C84.2904479,150.381639 84.3411836,150.84015 84.149723,150.962956 C83.9569273,151.086801 83.404709,151.046298 83.3598479,151.08031 C82.6973461,151.577766 82.2340489,153.019246 81.8353729,153.728303 C80.8008982,155.566762 79.7931265,157.4195 78.7754746,159.266786 C78.4601121,159.839017 78.0406077,160.230543 78.318052,160.694506 C78.6141884,161.189106 80.0131593,161.495992 80.55977,161.676177 C82.589466,162.34577 84.646132,162.567496 86.7623458,162.215953 C90.726141,161.558044 94.1665572,159.842392 97.2683792,157.413788 C109.149084,148.111671 118.893547,136.406393 121.868263,121.544243 C123.099539,115.391209 124.426144,105.794927 117.257187,102.56354" id="Leave-the-Leaf!" fill="#89C5CC" transform="translate(95.342752, 142.048012) scale(-1, 1) rotate(-302.000000) translate(-95.342752, -142.048012) "></path>
            </g>
        </g>
    </g>
</svg> 